0
SECTION
2
HEADER
9
$ACADVER
1
AC1015
9
$EXTMIN
10
-42.0
20
-58.0
9
$EXTMAX
10
115.0
20
78.0
9
$LTSCALE
40
1.0
9
$TEXTSIZE
40
2.5
0
ENDSEC
0
SECTION
2
TABLES
0
TABLE
2
LTYPE
70
9
0
LTYPE
2
ByBlock
70
0
3

72
65
73
0
40
0.0
0
LTYPE
2
ByLayer
70
0
3

72
65
73
0
40
0.0
0
LTYPE
2
Continuous
70
0
3
Solid line
72
65
73
0
40
0.0
0
LTYPE
2
DASHED
70
0
3
__ __ __ __ __
72
65
73
2
40
0.75
49
0.5
74
0
49
-0.25
74
0
0
LTYPE
2
HIDDEN
70
0
3
_ _ _ _ _ _ _
72
65
73
2
40
0.375
49
0.25
74
0
49
-0.125
74
0
0
LTYPE
2
CENTER
70
0
3
____ _ ____ _ ____
72
65
73
4
40
2.0
49
1.25
74
0
49
-0.25
74
0
49
0.25
74
0
49
-0.25
74
0
0
LTYPE
2
PHANTOM
70
0
3
_____ _ _ _____
72
65
73
6
40
2.5
49
1.25
74
0
49
-0.25
74
0
49
0.25
74
0
49
-0.25
74
0
49
0.25
74
0
49
-0.25
74
0
0
LTYPE
2
DOT
70
0
3
. . . . . . .
72
65
73
2
40
0.25
49
0.0
74
0
49
-0.25
74
0
0
LTYPE
2
DASHDOT
70
0
3
__ . __ . __ .
72
65
73
4
40
1.0
49
0.5
74
0
49
-0.25
74
0
49
0.0
74
0
49
-0.25
74
0
0
ENDTAB
0
TABLE
2
LAYER
70
7
0
LAYER
2
0
70
0
62
7
6
Continuous
0
LAYER
2
Titles
70
0
62
8
6
Continuous
0
LAYER
2
ConstantWidth
70
0
62
1
6
Continuous
0
LAYER
2
Tapered
70
0
62
3
6
Continuous
0
LAYER
2
VariableWidth
70
0
62
5
6
Continuous
0
LAYER
2
Expanding
70
0
62
6
6
Continuous
0
LAYER
2
Donut
70
0
62
4
6
Continuous
0
ENDTAB
0
ENDSEC
0
SECTION
2
ENTITIES
0
TEXT
8
Titles
10
-40.0
20
72.0
40
3.0
1
Line Types
0
TEXT
8
0
10
-40.0
20
65.0
40
2.5
1
Continuous
0
LINE
8
0
6
Continuous
10
0.0
20
65.0
11
100.0
21
65.0
0
TEXT
8
0
10
-40.0
20
57.0
40
2.5
1
Dashed
0
LINE
8
0
6
DASHED
10
0.0
20
57.0
11
100.0
21
57.0
0
TEXT
8
0
10
-40.0
20
49.0
40
2.5
1
Hidden
0
LINE
8
0
6
HIDDEN
10
0.0
20
49.0
11
100.0
21
49.0
0
TEXT
8
0
10
-40.0
20
41.0
40
2.5
1
Center
0
LINE
8
0
6
CENTER
10
0.0
20
41.0
11
100.0
21
41.0
0
TEXT
8
0
10
-40.0
20
33.0
40
2.5
1
Phantom
0
LINE
8
0
6
PHANTOM
10
0.0
20
33.0
11
100.0
21
33.0
0
TEXT
8
0
10
-40.0
20
25.0
40
2.5
1
Dot
0
LINE
8
0
6
DOT
10
0.0
20
25.0
11
100.0
21
25.0
0
TEXT
8
0
10
-40.0
20
17.0
40
2.5
1
Dash Dot
0
LINE
8
0
6
DASHDOT
10
0.0
20
17.0
11
100.0
21
17.0
0
TEXT
8
Titles
10
-40.0
20
5.0
40
3.0
1
Polyline Widths
0
TEXT
8
0
10
-40.0
20
-2.0
40
2.5
1
Constant
0
LWPOLYLINE
8
ConstantWidth
90
2
70
0
43
2.0
10
0.0
20
-2.0
10
80.0
20
-2.0
0
TEXT
8
0
10
-40.0
20
-14.0
40
2.5
1
Tapered
0
LWPOLYLINE
8
Tapered
90
2
70
0
10
0.0
20
-14.0
40
6.0
41
0.0
10
60.0
20
-14.0
0
TEXT
8
0
10
-40.0
20
-26.0
40
2.5
1
Variable
0
LWPOLYLINE
8
VariableWidth
90
5
70
0
10
0.0
20
-26.0
40
1.0
41
4.0
10
25.0
20
-26.0
40
4.0
41
1.0
10
50.0
20
-26.0
40
1.0
41
5.0
10
75.0
20
-26.0
40
5.0
41
1.0
10
100.0
20
-26.0
0
TEXT
8
0
10
-40.0
20
-38.0
40
2.5
1
Expanding
0
LWPOLYLINE
8
Expanding
90
4
70
0
10
0.0
20
-38.0
40
0.0
41
4.0
10
25.0
20
-38.0
40
4.0
41
4.0
10
55.0
20
-38.0
40
4.0
41
0.0
10
80.0
20
-38.0
0
TEXT
8
0
10
-40.0
20
-50.0
40
2.5
1
Donut
0
LWPOLYLINE
8
Donut
90
2
70
1
43
4.0
10
3.0
20
-50.0
42
1.0
10
17.0
20
-50.0
42
1.0
0
TEXT
8
Titles
10
85.0
20
-2.0
40
2.0
1
w = 2
0
TEXT
8
Titles
10
65.0
20
-14.0
40
2.0
1
6 > 0
0
TEXT
8
Titles
10
105.0
20
-26.0
40
2.0
1
1 > 4 > 1 > 5 > 1
0
TEXT
8
Titles
10
85.0
20
-38.0
40
2.0
1
0 > 4 > 4 > 0
0
TEXT
8
Titles
10
22.0
20
-50.0
40
2.0
1
w = 4
0
ENDSEC
0
EOF
